<svg width="64" height="64" viewBox="0 0 64 64" fill="none" xmlns="http://www.w3.org/2000/svg">
  <rect width="64" height="64" rx="16" fill="#047857"/>
  <rect x="9" y="9" width="46" height="46" rx="13" fill="#10B981"/>
  <path d="M19 24V18.5C19 17.1 20.1 16 21.5 16H27" stroke="#ECFDF5" stroke-width="4" stroke-linecap="round"/>
  <path d="M37 16H42.5C43.9 16 45 17.1 45 18.5V24" stroke="#ECFDF5" stroke-width="4" stroke-linecap="round"/>
  <path d="M45 40V45.5C45 46.9 43.9 48 42.5 48H37" stroke="#ECFDF5" stroke-width="4" stroke-linecap="round"/>
  <path d="M27 48H21.5C20.1 48 19 46.9 19 45.5V40" stroke="#ECFDF5" stroke-width="4" stroke-linecap="round"/>
  <path d="M19 38C22.2 43 26.9 45.5 32.7 45.5C39 45.5 44.3 42.2 47 36.8" stroke="#ECFDF5" stroke-width="4" stroke-linecap="round"/>
  <path d="M28.5 35.5C28.5 28.4 34.1 22.5 42 20.5C43.2 28.2 38.9 35.5 31.8 37.4" fill="#ECFDF5"/>
  <path d="M21.5 25.8C26.6 25.7 30.7 29.1 31.8 34.2C26.9 34.9 22.4 31.6 21.5 25.8Z" fill="#A7F3D0"/>
  <circle cx="28.5" cy="30.5" r="2" fill="#047857"/>
  <circle cx="34.5" cy="29" r="1.8" fill="#047857"/>
  <circle cx="32" cy="35" r="1.7" fill="#047857"/>
</svg>
