<svg width="600" height="160" viewBox="0 0 600 160" fill="none" xmlns="http://www.w3.org/2000/svg" role="img" aria-labelledby="title desc">
  <title id="title">NutriSnap logo</title>
  <desc id="desc">A green scan-frame mark with a food leaf and bowl, followed by the NutriSnap wordmark.</desc>
  <rect x="24" y="24" width="112" height="112" rx="28" fill="#047857"/>
  <rect x="38" y="38" width="84" height="84" rx="22" fill="#10B981"/>
  <path d="M59 66V54.5C59 51.5 61.5 49 64.5 49H76" stroke="#ECFDF5" stroke-width="8" stroke-linecap="round"/>
  <path d="M84 49H95.5C98.5 49 101 51.5 101 54.5V66" stroke="#ECFDF5" stroke-width="8" stroke-linecap="round"/>
  <path d="M101 94V105.5C101 108.5 98.5 111 95.5 111H84" stroke="#ECFDF5" stroke-width="8" stroke-linecap="round"/>
  <path d="M76 111H64.5C61.5 111 59 108.5 59 105.5V94" stroke="#ECFDF5" stroke-width="8" stroke-linecap="round"/>
  <path d="M59 91C66 102 76 107 88 107C101 107 112 100 118 88.5" stroke="#ECFDF5" stroke-width="8" stroke-linecap="round"/>
  <path d="M79 86.5C79 71 91 58 108 54C110.5 71 101 86.5 86 90.5" fill="#ECFDF5"/>
  <path d="M64 65C75 65 84 72.5 86 83.5C75.5 85 66 78 64 65Z" fill="#A7F3D0"/>
  <circle cx="79" cy="75" r="4" fill="#047857"/>
  <circle cx="91" cy="72" r="3.6" fill="#047857"/>
  <circle cx="86" cy="85" r="3.5" fill="#047857"/>
  <path d="M173 108V52H185.5L213 86.5V52H227.5V108H215L187.5 73.5V108H173Z" fill="#020617"/>
  <path d="M252.5 109C242.7 109 236.5 102.9 236.5 92.8V68H250.5V91.2C250.5 95.4 253 98 256.8 98C260.6 98 263.2 95.3 263.2 91.2V68H277.2V108H263.8V103.2C261.2 106.8 257.2 109 252.5 109Z" fill="#020617"/>
  <path d="M305.5 109C296.8 109 291.4 104 291.4 95.3V79.2H284.8V68H291.4V56.8H305.4V68H316.1V79.2H305.4V93.2C305.4 96 307 97.5 309.8 97.5C312.1 97.5 314.2 97 316.1 96.1V107.1C313.5 108.3 310 109 305.5 109Z" fill="#020617"/>
  <path d="M324.7 108V68H338V74.4C340.5 70 344.4 67.5 350.4 67.6V81.5H349.2C342.1 81.5 338.7 85.1 338.7 92.7V108H324.7Z" fill="#020617"/>
  <path d="M358.5 108V68H372.5V108H358.5ZM357.9 62.7V51.4H373.1V62.7H357.9Z" fill="#020617"/>
  <path d="M403.8 109C395 109 386.4 106.3 380.2 101L388 91.8C393.2 95.9 398.8 98 404.4 98C408.2 98 410.3 96.7 410.3 94.5V94.3C410.3 92.1 408.6 91 401.6 89.3C390.7 86.7 382.3 83.4 382.3 72V71.8C382.3 61.5 390.4 51.9 403.7 51.9C413.1 51.9 420 54.4 425.7 58.9L418.7 68.7C414 65.3 408.7 63.6 403.4 63.6C400 63.6 398.2 65 398.2 66.9V67.1C398.2 69.5 399.9 70.5 407.1 72.2C418.8 74.9 426.2 78.9 426.2 89.4V89.6C426.2 101.1 417.3 109 403.8 109Z" fill="#020617"/>
  <path d="M433.7 108V68H447.1V72.9C449.7 69.3 453.7 67.1 458.8 67.1C467.4 67.1 472.9 73.1 472.9 83.1V108H458.9V84.7C458.9 80.6 456.5 77.9 452.8 77.9C449 77.9 447.7 80.6 447.7 84.7V108H433.7Z" fill="#020617"/>
  <path d="M495 109C487.1 109 481.3 104.5 481.3 97.1V96.9C481.3 88.6 487.6 84.4 497.1 84.4C500.8 84.4 504.4 85 507 86V85.3C507 81 504.4 78.6 498.7 78.6C494.3 78.6 490.8 79.4 487 80.9L484.1 71C489 69 494.2 67.7 501 67.7C508.1 67.7 513 69.4 516.1 72.5C519.1 75.5 520.4 79.7 520.4 85.5V108H506.9V103.9C504.2 107 500.3 109 495 109ZM499.9 99.6C504.2 99.6 507.1 97.1 507.1 93.4V91.5C505.2 90.7 502.9 90.2 500.4 90.2C496.3 90.2 494 92.2 494 95.2V95.4C494 98 496.2 99.6 499.9 99.6Z" fill="#020617"/>
  <path d="M529.8 120V68H543.8V72.9C546.6 69.5 550.1 67.1 555.9 67.1C565.4 67.1 573.5 75.1 573.5 87.9V88.1C573.5 101.1 565.3 109 555.9 109C550 109 546.4 106.7 543.8 103.7V120H529.8ZM551.6 97.3C556.2 97.3 559.7 93.6 559.7 88.1V87.9C559.7 82.5 556.1 78.7 551.6 78.7C547.1 78.7 543.5 82.5 543.5 87.9V88.1C543.5 93.5 547.1 97.3 551.6 97.3Z" fill="#020617"/>
</svg>
