<svg width="640" height="180" viewBox="0 0 640 180" fill="none" xmlns="http://www.w3.org/2000/svg" role="img" aria-labelledby="title desc">
  <title id="title">NutriSnap logo</title>
  <desc id="desc">A camera outline containing a nutrition lens with a leaf and orange slice, followed by the NutriSnap wordmark and tagline.</desc>
  <path d="M48 112V68C48 56.5 57.5 47 69 47H89L98 30.5C100.3 26.5 104.6 24 109.2 24H141.5C146.1 24 150.4 26.5 152.7 30.5L161.7 47H174C185.5 47 195 56.5 195 68V112" stroke="#15803D" stroke-width="12" stroke-linecap="round" stroke-linejoin="round"/>
  <path d="M48 112V122C48 133.5 57.5 143 69 143H78" stroke="#15803D" stroke-width="12" stroke-linecap="round"/>
  <path d="M169 143H174C185.5 143 195 133.5 195 122V112" stroke="#15803D" stroke-width="12" stroke-linecap="round"/>
  <circle cx="122" cy="101" r="51" fill="#F8FAFC" stroke="#15803D" stroke-width="12"/>
  <path d="M111 108C111 82.5 128 64.1 153.7 59.3C156.5 86.4 139.3 108.8 114.8 115.9" fill="#22C55E"/>
  <path d="M88 137.5C90.2 116 107.8 99.1 129 96.4C131.5 119.1 117.2 138 94.2 144.2" fill="#FB923C"/>
  <path d="M98.7 138.5L125.4 110.5" stroke="#FFF7ED" stroke-width="7" stroke-linecap="round"/>
  <path d="M121 133L108.6 122.2" stroke="#FFF7ED" stroke-width="6" stroke-linecap="round"/>
  <path d="M128 120L115 111.6" stroke="#FFF7ED" stroke-width="6" stroke-linecap="round"/>
  <path d="M106.4 110.4C116.2 91.7 128.8 80.4 145.6 69.5" stroke="#F8FAFC" stroke-width="7" stroke-linecap="round"/>
  <circle cx="176" cy="67" r="8" fill="#22C55E"/>
  <text x="235" y="101" fill="#064E3B" font-family="Inter, Geist, Arial, sans-serif" font-size="58" font-weight="780" letter-spacing="0">Nutri</text>
  <text x="392" y="101" fill="#3FA51F" font-family="Inter, Geist, Arial, sans-serif" font-size="58" font-weight="780" letter-spacing="0">Snap</text>
  <text x="242" y="139" fill="#334155" font-family="Inter, Geist, Arial, sans-serif" font-size="22" font-weight="500" letter-spacing="4">Snap. Analyze. Nourish.</text>
</svg>
